<svg xmlns="http://www.w3.org/2000/svg" width="1050" height="620" viewBox="0 0 1050 620">
<rect width="100%" height="100%" fill="#fbfbf8" />
<text x="45" y="38" font-family="Arial" font-size="22" font-weight="700">Top Signal Features Contributing to Anomaly Risk</text>
<text x="320" y="90" text-anchor="end" font-family="Arial" font-size="13">sensor_20_roll_std</text>
<rect x="340" y="70" width="650.0" height="22" rx="2" fill="#247ba0" />
<text x="998.0" y="87" font-family="Arial" font-size="12">0.123</text>
<text x="320" y="124" text-anchor="end" font-family="Arial" font-size="13">sensor_12_roll_std</text>
<rect x="340" y="104" width="619.3" height="22" rx="2" fill="#247ba0" />
<text x="967.2988432916658" y="121" font-family="Arial" font-size="12">0.117</text>
<text x="320" y="158" text-anchor="end" font-family="Arial" font-size="13">sensor_8_roll_std</text>
<rect x="340" y="138" width="535.1" height="22" rx="2" fill="#247ba0" />
<text x="883.1355153641264" y="155" font-family="Arial" font-size="12">0.101</text>
<text x="320" y="192" text-anchor="end" font-family="Arial" font-size="13">sensor_4_roll_std</text>
<rect x="340" y="172" width="502.1" height="22" rx="2" fill="#247ba0" />
<text x="850.0942099770309" y="189" font-family="Arial" font-size="12">0.095</text>
<text x="320" y="226" text-anchor="end" font-family="Arial" font-size="13">sensor_16_roll_std</text>
<rect x="340" y="206" width="454.7" height="22" rx="2" fill="#247ba0" />
<text x="802.6735888867343" y="223" font-family="Arial" font-size="12">0.086</text>
<text x="320" y="260" text-anchor="end" font-family="Arial" font-size="13">sensor_4_spectral_energy</text>
<rect x="340" y="240" width="315.8" height="22" rx="2" fill="#247ba0" />
<text x="663.8078855261979" y="257" font-family="Arial" font-size="12">0.060</text>
<text x="320" y="294" text-anchor="end" font-family="Arial" font-size="13">sensor_10_roll_std</text>
<rect x="340" y="274" width="193.7" height="22" rx="2" fill="#247ba0" />
<text x="541.7033176622625" y="291" font-family="Arial" font-size="12">0.037</text>
<text x="320" y="328" text-anchor="end" font-family="Arial" font-size="13">sensor_14_roll_std</text>
<rect x="340" y="308" width="118.9" height="22" rx="2" fill="#247ba0" />
<text x="466.9049184643152" y="325" font-family="Arial" font-size="12">0.022</text>
<text x="320" y="362" text-anchor="end" font-family="Arial" font-size="13">sensor_5_roll_mean</text>
<rect x="340" y="342" width="111.3" height="22" rx="2" fill="#247ba0" />
<text x="459.2995565188153" y="359" font-family="Arial" font-size="12">0.021</text>
<text x="320" y="396" text-anchor="end" font-family="Arial" font-size="13">sensor_5</text>
<rect x="340" y="376" width="100.5" height="22" rx="2" fill="#247ba0" />
<text x="448.4691301791477" y="393" font-family="Arial" font-size="12">0.019</text>
<text x="320" y="430" text-anchor="end" font-family="Arial" font-size="13">sensor_9_roll_mean</text>
<rect x="340" y="410" width="100.4" height="22" rx="2" fill="#247ba0" />
<text x="448.42798424472346" y="427" font-family="Arial" font-size="12">0.019</text>
<text x="320" y="464" text-anchor="end" font-family="Arial" font-size="13">sensor_9</text>
<rect x="340" y="444" width="96.4" height="22" rx="2" fill="#247ba0" />
<text x="444.38812052178105" y="461" font-family="Arial" font-size="12">0.018</text>
<text x="320" y="498" text-anchor="end" font-family="Arial" font-size="13">sensor_6_roll_std</text>
<rect x="340" y="478" width="87.3" height="22" rx="2" fill="#247ba0" />
<text x="435.26034862795166" y="495" font-family="Arial" font-size="12">0.016</text>
<text x="320" y="532" text-anchor="end" font-family="Arial" font-size="13">sensor_18_roll_std</text>
<rect x="340" y="512" width="85.7" height="22" rx="2" fill="#247ba0" />
<text x="433.7051609845887" y="529" font-family="Arial" font-size="12">0.016</text>
<text x="320" y="566" text-anchor="end" font-family="Arial" font-size="13">sensor_17_roll_mean</text>
<rect x="340" y="546" width="71.8" height="22" rx="2" fill="#247ba0" />
<text x="419.8240727548132" y="563" font-family="Arial" font-size="12">0.014</text>
</svg>